<?xml version="1.0" encoding="UTF-8"?>
<svg width="1127px" height="143px" viewBox="0 0 1127 143" version="1.1" xmlns="http://www.w3.org/2000/svg" xmlns:xlink="http://www.w3.org/1999/xlink">
    <!-- Generator: Sketch 63.1 (92452) - https://sketch.com -->
    <title>logo</title>
    <desc>Created with Sketch.</desc>
    <g id="Page-1" stroke="none" stroke-width="1" fill="none" fill-rule="evenodd">
        <g id="logo" fill="#333333" fill-rule="nonzero">
            <path d="M163.598849,43.2133764 C159.800351,51.7515489 155.695037,60.166688 151.282906,68.4591712 C146.871717,76.6903265 142.245003,84.492186 137.404647,91.8628629 C132.625466,99.2344833 127.723935,106.052265 122.699113,112.318095 C117.675233,118.521654 112.681469,123.896813 107.717822,128.44263 C102.816291,132.926176 98.006052,136.458666 93.2880463,139.038214 C88.6312156,141.556434 84.2200261,142.816016 80.0532543,142.816016 C78.3375303,142.816016 76.7444387,142.508433 75.2738853,141.89421 C73.8033319,141.279987 72.516586,140.450644 71.4137416,139.407125 C70.310803,138.301335 69.452941,137.011561 68.8402496,135.536859 C68.2275583,134.063101 67.9211185,132.465744 67.9211185,130.745731 L67.9211185,86.0584077 L20.4957962,139.222198 C19.2703194,140.450644 17.9223043,141.37245 16.451751,141.986673 C15.0424668,142.539569 13.5719134,142.816016 12.0400909,142.816016 C10.3857301,142.816016 8.82332015,142.508433 7.35276679,141.89421 C5.94348257,141.279987 4.68732412,140.450644 3.58447969,139.407125 C2.48154114,138.301335 1.59309163,137.011561 0.919037026,135.536859 C0.306345675,134.063101 0,132.465744 0,130.745731 L0,43.2133764 L23.8964685,43.2133764 L23.8964685,99.9713623 L71.5055982,46.6225503 C73.2212281,44.9026314 75.2432978,43.8275995 77.571619,43.3976433 C79.9613035,42.9062649 82.2897189,43.1519576 84.5569592,44.1348054 C86.8241996,45.05614 88.6010986,46.5303697 89.8876563,48.5577776 C91.2353891,50.5231027 91.9092555,52.7035475 91.9092555,55.0991118 L91.9092555,112.041648 C97.0564275,107.065592 101.713258,101.814031 105.879748,96.2860238 C110.046237,90.7570727 113.906851,85.0752734 117.460649,79.2396825 C121.075623,73.3427636 124.445896,67.3845167 127.570527,61.3649419 C130.756334,55.2840392 133.850849,49.2333286 136.853131,43.2133764 L163.598849,43.2133764 Z M270.398199,109.830067 C270.398199,113.147438 269.815624,116.740313 268.651417,120.610578 C267.487209,124.418573 265.58796,127.981255 262.953669,131.298626 C260.379613,134.553725 256.979223,137.288008 252.751558,139.498645 C248.585069,141.710226 243.499072,142.816016 237.494508,142.816016 L194.388707,142.816016 C191.079609,142.816016 187.495694,142.232929 183.63508,141.065811 C179.836582,139.898692 176.282784,138.024887 172.973686,135.445339 C169.726704,132.80352 166.999239,129.394629 164.794115,125.217723 C162.58805,120.978546 161.485017,115.849642 161.485017,109.830067 C161.485017,106.512696 162.067591,102.919822 163.231799,99.0495559 C164.396007,95.1802336 166.264198,91.6175511 168.838254,88.3615083 C171.472545,85.0450812 174.872935,82.2806056 179.039424,80.0690251 C183.26803,77.8574447 188.384144,76.7516544 194.388707,76.7516544 L237.494508,76.7516544 L237.494508,99.602451 L194.388707,99.602451 C191.141725,99.602451 188.628844,100.615778 186.851945,102.643374 C185.075046,104.608699 184.186596,107.065592 184.186596,110.014051 C184.186596,113.147438 185.197396,115.60433 187.219936,117.385671 C189.30271,119.105685 191.754417,119.96522 194.572232,119.96522 L237.494508,119.96522 C240.74149,119.96522 243.254372,118.983029 245.031271,117.01676 C246.80817,115.051435 247.696619,112.594543 247.696619,109.646083 L247.696619,76.1997028 C247.696619,73.066316 246.715937,70.5792315 244.755513,68.7356188 C242.855322,66.8929496 240.435615,65.9720867 237.494508,65.9720867 L185.013871,65.9720867 L185.013871,43.2133764 L237.494508,43.2133764 C240.802665,43.2133764 244.356463,43.7969355 248.155903,44.9640537 C252.016517,46.1310775 255.570315,48.0353578 258.817297,50.6768944 C262.126395,53.2564426 264.883035,56.6653334 267.089101,60.9045105 C269.295166,65.0814161 270.398199,70.1791845 270.398199,76.1997028 L270.398199,109.830067 Z M409.365256,43.2133764 C406.668849,51.628893 403.5141,59.9213762 399.898186,68.0912035 C396.283213,76.2610308 392.116724,84.0619468 387.398718,91.4939517 C382.741887,98.865572 377.503423,105.714489 371.682385,112.041648 C365.922521,118.306534 359.51985,123.743022 352.473429,128.350166 C345.488182,132.895983 337.859187,136.488858 329.587383,139.130678 C321.376754,141.710226 312.462142,143 302.841664,143 C301.188057,143 299.6248,142.69336 298.154717,142.079137 C296.683693,141.464914 295.397135,140.635571 294.294102,139.591109 C293.192011,138.485319 292.333678,137.226681 291.720987,135.813307 C291.108296,134.339549 290.801479,132.772384 290.801479,131.114642 L290.801479,43.2133764 L314.698324,43.2133764 L314.698324,118.12255 C320.519363,118.12255 326.09476,116.862968 331.425457,114.344748 C336.81827,111.826528 341.903326,108.509157 346.682507,104.39358 C351.462629,100.216674 355.873818,95.4868734 359.917958,90.2041776 C364.023272,84.9214817 367.669303,79.51613 370.85511,73.9881224 C374.040917,68.3978433 376.737324,62.9311636 378.943389,57.5871398 C381.210629,52.243116 382.895295,47.4517987 383.998328,43.2133764 L409.365256,43.2133764 Z M524.895692,76.1997028 C524.895692,79.51613 524.313118,83.1099483 523.14891,86.9792706 C521.984702,90.7882084 520.085453,94.3508909 517.451163,97.6673181 C514.877106,100.923361 511.476716,103.656701 507.249052,105.868281 C503.082562,108.079862 497.996565,109.184708 491.992002,109.184708 L448.886201,109.184708 L448.886201,86.4263754 L491.992002,86.4263754 C495.238984,86.4263754 497.751865,85.4441846 499.528764,83.477916 C501.305663,81.4512629 502.194113,78.9632349 502.194113,76.0147755 C502.194113,72.8823321 501.183313,70.4254399 499.160773,68.6440986 C497.200349,66.8627573 494.810759,65.9720867 491.992002,65.9720867 L448.886201,65.9720867 C445.639219,65.9720867 443.126337,66.9854132 441.349438,69.0120663 C439.572539,70.978335 438.68409,73.4352273 438.68409,76.3836867 L438.68409,109.830067 C438.68409,113.023838 439.664772,115.511866 441.625196,117.293208 C443.647737,119.074549 446.12956,119.96522 449.069726,119.96522 L491.992002,119.96522 L491.992002,142.816016 L448.886201,142.816016 C445.578044,142.816016 441.993188,142.232929 438.132573,141.065811 C434.334075,139.898692 430.780277,138.024887 427.471179,135.445339 C424.224197,132.80352 421.497674,129.394629 419.291608,125.217723 C417.085543,120.978546 415.98251,115.849642 415.98251,109.830067 L415.98251,76.1997028 C415.98251,72.8823321 416.565085,69.3196496 417.729293,65.5107118 C418.8935,61.6413895 420.761691,58.078707 423.335748,54.8226642 C425.970038,51.506237 429.371369,48.7417615 433.537859,46.5303697 C437.765523,44.3190723 442.881637,43.2133764 448.886201,43.2133764 L491.992002,43.2133764 C495.3011,43.2133764 498.854898,43.7969355 502.653396,44.9640537 C506.51401,46.1310775 510.067808,48.0353578 513.31479,50.6768944 C516.623888,53.2564426 519.38147,56.6653334 521.586594,60.9045105 C523.792659,65.0814161 524.895692,70.1791845 524.895692,76.1997028 Z M628.93746,67.1693971 L574.894506,67.1693971 L574.894506,43.2133764 L628.93746,43.2133764 L628.93746,67.1693971 Z M628.93746,23.9562094 L575.078031,23.9562094 C571.831049,23.9562094 569.380284,24.7854577 567.725735,26.4440487 C566.071186,28.0411231 565.243912,30.4060234 565.243912,33.5387498 L565.243912,142.816016 L541.347067,142.816016 L541.347067,33.5387498 C541.347067,29.4231721 541.868466,25.737645 542.910324,22.4819797 C543.95124,19.2264087 545.330031,16.3701299 547.045755,13.9130489 C548.822654,11.3945456 550.845194,9.27533448 553.111493,7.55541553 C555.378734,5.77407427 557.738207,4.33060288 560.188973,3.224907 C562.700913,2.11921112 565.212853,1.32072113 567.725735,0.829248322 C570.237675,0.276447558 572.627266,0 574.894506,0 L628.93746,0 L628.93746,23.9562094 Z M752.371709,109.184708 C752.371709,113.300286 751.85125,117.01676 750.809393,120.334131 C749.767535,123.58923 748.388744,126.476362 746.67302,128.995525 C744.958237,131.452418 742.966755,133.571534 740.699515,135.352876 C738.432275,137.072889 736.042684,138.485319 733.530744,139.591109 C731.079037,140.696899 728.567097,141.526242 725.993981,142.079137 C723.482041,142.570704 721.091509,142.816016 718.82521,142.816016 L675.719409,142.816016 C672.410311,142.816016 668.795338,142.232929 664.873549,141.065811 C660.9527,139.898692 657.306669,137.993752 653.936396,135.352876 C650.628239,132.649728 647.8396,129.179509 645.573301,124.941276 C643.367235,120.640771 642.264203,115.389211 642.264203,109.184708 L642.264203,76.7516544 C642.264203,70.6094237 643.367235,65.4191916 645.573301,61.180958 C647.8396,56.880453 650.628239,53.4102342 653.936396,50.7684146 C657.306669,48.0660217 660.9527,46.1310775 664.873549,44.9640537 C668.795338,43.7969355 672.410311,43.2133764 675.719409,43.2133764 L718.82521,43.2133764 C724.952124,43.2133764 730.160471,44.3190723 734.44931,46.5303697 C738.73815,48.7417615 742.200656,51.5364293 744.834946,54.9151279 C747.470178,58.2324986 749.369427,61.8565091 750.533635,65.7871593 C751.759017,69.7187531 752.371709,73.3738993 752.371709,76.7516544 L752.371709,109.184708 Z M728.475805,76.9365818 C728.475805,73.6192111 727.64853,71.1623188 725.993981,69.5649614 C724.339432,67.9685476 721.949842,67.1693971 718.82521,67.1693971 L675.902934,67.1693971 C672.717127,67.1693971 670.296479,67.9987398 668.64193,69.6574251 C666.987381,71.2547825 666.161048,73.6192111 666.161048,76.7516544 L666.161048,109.184708 C666.161048,112.318095 666.987381,114.713659 668.64193,116.372345 C670.296479,118.030087 672.717127,118.859429 675.902934,118.859429 L718.82521,118.859429 C722.072192,118.859429 724.492841,118.030087 726.085273,116.372345 C727.678647,114.713659 728.475805,112.318095 728.475805,109.184708 L728.475805,76.9365818 Z M859.722574,67.1693971 L805.955379,67.1693971 C802.707456,67.1693971 800.256691,67.9987398 798.602142,69.6574251 C796.947593,71.2547825 796.120318,73.6192111 796.120318,76.7516544 L796.120318,142.816016 L772.224414,142.816016 L772.224414,76.7516544 C772.224414,72.6360768 772.744873,68.9507384 773.78673,65.6956392 C774.828588,62.4395964 776.207379,59.5836007 777.923103,57.1267084 C779.700002,54.6075446 781.721601,52.4884279 783.988841,50.7684146 C786.256082,48.9870733 788.614614,47.543885 791.065379,46.4382834 C793.578261,45.3325875 796.090201,44.5340032 798.602142,44.0426247 C801.176198,43.489824 803.565789,43.2133764 805.770913,43.2133764 L859.722574,43.2133764 L859.722574,67.1693971 Z M964.22739,142.816016 L940.331486,142.816016 L940.331486,76.7516544 C940.331486,73.6192111 939.50327,71.2547825 937.846839,69.6574251 C936.190408,67.9987398 933.743407,67.1693971 930.496425,67.1693971 L899.427044,67.1693971 L899.427044,142.816016 L875.531141,142.816016 L875.531141,55.0991118 C875.531141,53.4404264 875.837016,51.9053405 876.449707,50.491967 C877.062398,49.018209 877.920731,47.7589102 879.022823,46.7146366 C880.125855,45.6090351 881.413354,44.7490285 882.883437,44.1348054 C884.35352,43.520488 885.916777,43.2133764 887.570385,43.2133764 L930.675245,43.2133764 C933.988107,43.2133764 937.536258,43.7969355 941.338521,44.9640537 C945.140784,46.1310775 948.754816,48.0045994 952.180617,50.5844307 L952.180617,43.2133764 L984.537496,43.2133764 C986.805678,43.2133764 989.19621,43.489824 991.69968,44.0426247 C994.212561,44.5340032 996.697208,45.3325875 999.15362,46.4382834 C1001.65709,47.543885 1004.04762,48.9870733 1006.3158,50.7684146 C1008.58398,52.4884279 1010.57923,54.6075446 1012.29213,57.1267084 C1014.00503,59.5836007 1015.38853,62.4395964 1016.4238,65.6956392 C1017.46848,68.9507384 1017.98611,72.6360768 1017.98611,76.7516544 L1017.98611,142.816016 L994.090211,142.816016 L994.090211,76.7516544 C994.090211,73.6192111 993.299642,71.2547825 991.69968,69.6574251 C990.17501,67.9987398 987.784478,67.1693971 984.537496,67.1693971 L963.032124,67.1693971 C963.822694,70.1178566 964.22739,73.3125713 964.22739,76.7516544 L964.22739,142.816016 Z M1127,67.1693971 L1073.23186,67.1693971 C1069.98488,67.1693971 1067.52847,67.9987398 1065.87204,69.6574251 C1064.22502,71.2547825 1063.3968,73.6192111 1063.3968,76.7516544 L1063.3968,142.816016 L1039.5009,142.816016 L1039.5009,76.7516544 C1039.5009,72.6360768 1040.01853,68.9507384 1041.06321,65.6956392 C1042.09848,62.4395964 1043.48198,59.5836007 1045.19488,57.1267084 C1046.97366,54.6075446 1048.99714,52.4884279 1051.26533,50.7684146 C1053.53351,48.9870733 1055.88639,47.543885 1058.3428,46.4382834 C1060.85569,45.3325875 1063.35916,44.5340032 1065.87204,44.0426247 C1068.4508,43.489824 1070.84133,43.2133764 1073.04363,43.2133764 L1127,43.2133764 L1127,67.1693971 Z" id="Shape"></path>
        </g>
    </g>
</svg>